<svg xmlns="http://www.w3.org/2000/svg" version="1.1" xmlns:xlink="http://www.w3.org/1999/xlink" xmlns:svgjs="http://svgjs.com/svgjs" width="1440" height="560" preserveAspectRatio="none" viewBox="0 0 1440 560"><g mask="url(&quot;#SvgjsMask1040&quot;)" fill="none"><path d="M1464 560L0 560 L0 314.48Q44.83 287.31, 72 332.14Q124.22 312.36, 144 364.57Q193.46 294.03, 264 343.49Q275.79 283.28, 336 295.08Q409.51 248.59, 456 322.1Q512.28 306.38, 528 362.66Q581.67 296.34, 648 350.01Q657.57 287.58, 720 297.15Q761.42 266.57, 792 307.99Q865.28 261.27, 912 334.56Q922.31 272.87, 984 283.18Q1027.95 255.13, 1056 299.09Q1105.35 276.44, 1128 325.79Q1179.61 305.39, 1200 357Q1214.66 299.66, 1272 314.33Q1293.44 263.77, 1344 285.21Q1432.06 253.27, 1464 341.33z" fill="rgba(197, 15, 15, 1)"></path><path d="M1512 560L0 560 L0 409.15Q19.42 356.57, 72 375.99Q154.44 338.43, 192 420.87Q239.4 348.27, 312 395.67Q342.55 354.22, 384 384.77Q473.95 354.72, 504 444.66Q547.9 368.57, 624 412.47Q691.6 360.07, 744 427.67Q777.04 340.72, 864 373.76Q906.6 344.36, 936 386.95Q978.09 309.03, 1056 351.12Q1098.4 321.52, 1128 363.92Q1203.03 318.95, 1248 393.97Q1320.49 346.46, 1368 418.95Q1385.3 364.25, 1440 381.55Q1467.03 336.58, 1512 363.6z" fill="rgba(211, 160, 0, 1)"></path><path d="M1464 560L0 560 L0 473.9Q40.88 442.78, 72 483.67Q112.36 404.03, 192 444.39Q282.48 414.87, 312 505.34Q360.07 433.41, 432 481.49Q479.73 409.22, 552 456.95Q593.9 426.86, 624 468.76Q699.69 424.45, 744 500.15Q796.23 432.38, 864 484.6Q874.01 422.61, 936 432.62Q977.01 401.63, 1008 442.65Q1056.81 371.46, 1128 420.27Q1192.17 412.44, 1200 476.62Q1254.84 459.46, 1272 514.3Q1275.69 445.99, 1344 449.68Q1411.56 397.24, 1464 464.8z" fill="rgba(240, 232, 3, 1)"></path><path d="M1512 560L0 560 L0 566.9Q20.82 515.72, 72 536.54Q118.86 463.4, 192 510.26Q235.69 481.95, 264 525.65Q353.6 495.25, 384 584.84Q397.18 526.02, 456 539.2Q494.06 457.26, 576 495.32Q620.22 467.54, 648 511.77Q691.35 483.12, 720 526.47Q739.79 474.26, 792 494.05Q835.37 465.42, 864 508.79Q930.39 503.18, 936 569.57Q1002.34 515.91, 1056 582.26Q1073.81 528.07, 1128 545.88Q1142.23 488.11, 1200 502.34Q1275.57 457.91, 1320 533.48Q1371.24 512.73, 1392 563.97Q1427.29 479.25, 1512 514.54z" fill="white"></path></g><defs><mask id="SvgjsMask1040"><rect width="1440" height="560" fill="#ffffff"></rect></mask></defs></svg>